<?xml version="1.0" standalone="no"?>
<!DOCTYPE svg PUBLIC "-//W3C//DTD SVG 20010904//EN"
 "http://www.w3.org/TR/2001/REC-SVG-20010904/DTD/svg10.dtd">
<svg version="1.0" xmlns="http://www.w3.org/2000/svg"
 width="500.000000pt" height="500.000000pt" viewBox="0 0 500.000000 500.000000"
 preserveAspectRatio="xMidYMid meet">
<metadata>
Created by potrace 1.14, written by Peter Selinger 2001-2017
</metadata>
<g transform="translate(0.000000,500.000000) scale(0.100000,-0.100000)"
fill="#000000" stroke="none">
<path d="M1537 3984 c-32 -7 -83 -26 -115 -41 -76 -37 -189 -150 -225 -225
-55 -116 -54 -94 -52 -1123 1 -523 4 -959 7 -970 3 -11 11 -40 18 -65 29 -110
99 -233 182 -318 186 -193 429 -206 683 -38 39 27 586 347 850 498 28 16 64
37 80 47 17 10 154 90 305 178 354 205 347 201 407 266 41 46 96 134 98 157 0
3 4 11 9 19 16 25 16 173 0 236 -19 72 -83 197 -133 256 -95 114 -135 146
-296 235 -27 15 -436 251 -665 384 -102 59 -205 118 -230 132 -25 14 -142 81
-260 150 -293 170 -337 194 -394 213 -66 22 -197 26 -269 9z m478 -534 c2 0 9
-15 18 -32 13 -29 15 -147 15 -881 l-1 -848 -21 -32 c-42 -63 -139 -59 -173 7
-14 28 -16 120 -16 882 l0 852 22 31 c28 39 74 53 120 35 18 -8 35 -14 36 -14z
m-383 -271 c10 -5 25 -21 35 -35 15 -23 16 -81 16 -604 l0 -578 -22 -30 c-41
-58 -127 -55 -167 6 l-22 32 1 578 c2 631 0 605 61 635 32 15 65 14 98 -4z
m1323 -243 c68 -29 69 -34 71 -375 1 -168 -3 -323 -8 -343 -24 -100 -165 -104
-197 -5 -6 20 -10 151 -8 349 l2 317 29 30 c16 16 38 32 50 34 11 2 22 5 24 6
1 0 18 -5 37 -13z m366 -173 l29 -34 0 -187 c0 -154 -3 -192 -16 -210 -38 -54
-117 -62 -164 -16 -25 24 -25 27 -28 219 l-4 195 36 36 c30 30 41 35 76 32 33
-1 48 -9 71 -35z m-945 -7 l34 -34 0 -171 c0 -191 -7 -219 -60 -246 -67 -34
-149 17 -151 93 -5 206 0 312 17 340 36 62 108 70 160 18z m296 -118 c27 -13
45 -59 43 -107 -1 -36 -8 -50 -34 -73 -82 -73 -200 7 -170 115 20 73 91 102
161 65z"/>
</g>
</svg>
